<?xml version="1.0" encoding="UTF-8"?>
<svg version="1.1" xmlns="http://www.w3.org/2000/svg" width="2000" height="1401">
<path d="M0 0 C89.96691505 -2.17529494 167.28060144 36.8827335 231.5 97.59033203 C239.73668416 105.44085305 247.78749632 113.398096 255.1484375 122.08251953 C256.1560838 123.24004933 257.16536492 124.39615692 258.17578125 125.55126953 C263.10917358 131.1995632 268.00721854 136.82649012 272.5859375 142.77001953 C276.91699127 148.27064057 281.08500685 151.50202944 288.2109375 152.52001953 C298.13023104 151.4178758 305.20014004 143.53620596 311.7734375 136.64501953 C316.81350162 131.437226 321.8393229 126.34542305 327.34814453 121.63110352 C329.8946209 119.44066419 332.32565983 117.1321608 334.7734375 114.83251953 C340.12868898 109.87064499 345.7510963 105.34512536 351.53125 100.89111328 C353.9535289 99.02374933 356.34017432 97.1220515 358.703125 95.18017578 C394.73819576 65.61706816 437.2622938 41.75115703 481.1484375 26.08251953 C482.82679688 25.47996338 482.82679688 25.47996338 484.5390625 24.86523438 C512.72344563 14.85377841 541.52748214 7.41852321 571.1484375 3.08251953 C572.25606445 2.91880859 573.36369141 2.75509766 574.50488281 2.58642578 C657.4593081 -9.04786626 739.98377613 10.10640614 814.1484375 47.08251953 C815.42630127 47.71843018 815.42630127 47.71843018 816.72998047 48.3671875 C836.07643721 58.07367065 854.57734019 69.45183685 872.1484375 82.08251953 C872.89013184 82.61312988 873.63182617 83.14374023 874.39599609 83.69042969 C889.40427386 94.46568316 903.85520973 105.8417666 917.33984375 118.48486328 C919.41987822 120.40867819 921.51807903 122.25384265 923.671875 124.09033203 C929.18785195 128.89704687 934.3143927 134.0990982 939.47583008 139.27954102 C941.2073845 141.01645553 942.94422109 142.74795842 944.68164062 144.47900391 C950.38406482 150.17764889 955.94868179 155.91492291 961.1484375 162.08251953 C962.12099016 163.20093094 963.09491886 164.31814745 964.0703125 165.43408203 C980.69042585 184.61983297 996.07751098 204.95874597 1010.1484375 226.08251953 C1010.6345752 226.80777832 1011.12071289 227.53303711 1011.62158203 228.28027344 C1026.84748246 251.06327149 1040.50770886 274.7794912 1053.1484375 299.08251953 C1054.01831299 300.75435303 1054.01831299 300.75435303 1054.90576172 302.45996094 C1068.40682711 328.57195251 1080.14927138 355.434941 1090.1484375 383.08251953 C1090.4051825 383.79112122 1090.66192749 384.4997229 1090.92645264 385.22979736 C1119.39074353 464.01401715 1134.93489141 546.45498356 1139.1484375 630.08251953 C1139.20483398 631.08750488 1139.26123047 632.09249023 1139.31933594 633.12792969 C1144.11850389 719.61234382 1135.59804416 807.44853068 1099.80474854 936.09210205 C1099.17048807 938.01564599 1098.54288637 939.94138162 1097.91552734 941.8671875 C1089.07318341 968.91542173 1078.24330226 995.32662123 1066.1484375 1021.08251953 C1065.70854492 1022.02256836 1065.26865234 1022.96261719 1064.81542969 1023.93115234 C1040.14605536 1076.46559102 1010.61672274 1126.58893081 973.1484375 1171.08251953 C972.29399708 1172.11093799 971.43984672 1173.13959747 970.5859375 1174.16845703 C964.54254672 1181.41683501 958.26933646 1188.41381771 951.81542969 1195.29785156 C950.00357797 1197.23760494 948.20460145 1199.18884059 946.40625 1201.14111328 C940.40060919 1207.6385725 934.41309531 1214.01504788 927.72265625 1219.82080078 C925.74662102 1221.55695313 923.82519954 1223.31614977 921.91796875 1225.12548828 C914.55133149 1232.11084249 906.96294155 1238.54317818 898.90625 1244.71435547 C897.16077238 1246.07291888 895.44822758 1247.46390332 893.7421875 1248.87158203 C866.69340352 1271.149951 836.4080742 1288.47114189 805.1484375 1304.08251953 C804.36388184 1304.47874512 803.57932617 1304.8749707 802.77099609 1305.28320312 C766.44322964 1323.5437251 726.77439494 1335.62844358 686.7734375 1342.39501953 C685.6935405 1342.5800856 685.6935405 1342.5800856 684.59182739 1342.76889038 C664.68345551 1346.14112887 644.82793791 1347.47075276 624.6484375 1347.39501953 C623.65463074 1347.39352905 622.66082397 1347.39203857 621.63690186 1347.39050293 C604.63016318 1347.34494947 588.0080962 1346.43707592 571.1484375 1344.08251953 C570.16037109 1343.95393555 569.17230469 1343.82535156 568.15429688 1343.69287109 C528.37572169 1338.42214282 489.59952944 1325.54847937 453.1484375 1309.08251953 C452.16584961 1308.6394043 451.18326172 1308.19628906 450.17089844 1307.73974609 C422.20734622 1295.00875076 395.9615932 1279.1626937 371.1484375 1261.08251953 C370.46652344 1260.58751953 369.78460937 1260.09251953 369.08203125 1259.58251953 C356.63797358 1250.51512267 345.00430331 1240.67849912 333.625 1230.31298828 C332.25316029 1229.07746703 330.87378517 1227.84966472 329.46557617 1226.65576172 C322.83760641 1221.00326077 316.81466742 1214.75310442 310.78735352 1208.47460938 C301.2128886 1198.50629809 301.2128886 1198.50629809 288.6484375 1193.39501953 C275.60782078 1195.95656924 267.1134511 1209.84155197 259.3046875 1219.52001953 C256.78611315 1222.51310789 254.10147214 1225.24708444 251.265625 1227.93798828 C249.43569628 1229.79155077 247.75319805 1231.68539558 246.05859375 1233.66064453 C241.51467989 1238.89279215 236.61949768 1243.75739138 231.7109375 1248.64501953 C230.80794922 1249.551875 229.90496094 1250.45873047 228.97460938 1251.39306641 C223.86122388 1256.49904657 218.65436979 1261.4037979 213.1484375 1266.08251953 C212.12710688 1266.9712713 211.10624114 1267.86055771 210.0859375 1268.75048828 C188.12941923 1287.5828743 164.1322399 1303.6509602 138.03662109 1316.17089844 C136.2698695 1317.02389177 134.51527049 1317.90192858 132.76171875 1318.78173828 C66.74908854 1351.07297928 -8.13241392 1355.51668133 -77.53222656 1332.18115234 C-112.59946869 1320.03693708 -145.77470626 1301.05509986 -174.8515625 1278.08251953 C-175.6559375 1277.45732422 -176.4603125 1276.83212891 -177.2890625 1276.18798828 C-186.9499783 1268.58620998 -196.51357278 1260.71105136 -205.06640625 1251.86767578 C-206.89702965 1250.03705238 -208.81056107 1248.37627514 -210.7890625 1246.70751953 C-214.63512267 1243.39066532 -217.95859045 1239.7492657 -221.30859375 1235.93798828 C-223.15460533 1233.86512428 -225.01657522 1231.83355696 -226.92578125 1229.82080078 C-233.84044406 1222.52647292 -240.25189535 1215.03171737 -246.34912109 1207.04394531 C-248.63563983 1204.05891256 -250.95034899 1201.09598631 -253.26196289 1198.13037109 C-255.00745308 1195.89076934 -256.75038589 1193.64920942 -258.4921875 1191.40673828 C-259.04084473 1190.70218506 -259.58950195 1189.99763184 -260.15478516 1189.27172852 C-261.33807429 1187.74503014 -262.5142999 1186.21284215 -263.68505859 1184.67651367 C-271.1233216 1174.64896944 -271.1233216 1174.64896944 -281.8515625 1169.08251953 C-287.46896923 1169.17168472 -290.07026405 1169.76684305 -294.41235352 1173.59008789 C-296.76448707 1176.0292045 -298.30209699 1178.85452053 -299.8515625 1181.83251953 C-300.62710451 1183.2611763 -301.4031836 1184.68954159 -302.1796875 1186.11767578 C-302.60185547 1186.90416504 -303.02402344 1187.6906543 -303.45898438 1188.50097656 C-319.14662169 1217.58251179 -335.9568076 1245.8981712 -357.29443359 1271.23291016 C-358.81955308 1273.04449768 -360.33020804 1274.86739905 -361.83984375 1276.69189453 C-372.07519651 1288.95840709 -383.13195219 1300.37092518 -395.8515625 1310.08251953 C-396.68010742 1310.72568115 -396.68010742 1310.72568115 -397.52539062 1311.38183594 C-406.82021785 1318.57231836 -416.41668821 1324.68328147 -426.8515625 1330.08251953 C-427.52413086 1330.43443359 -428.19669922 1330.78634766 -428.88964844 1331.14892578 C-440.12570029 1336.95716623 -451.62422527 1340.89855256 -463.8515625 1344.08251953 C-464.8209375 1344.33904297 -465.7903125 1344.59556641 -466.7890625 1344.85986328 C-502.58834507 1352.71964167 -539.28749943 1341.66094621 -569.54931641 1322.59619141 C-576.2924195 1318.16276201 -582.60705999 1313.18486783 -588.8515625 1308.08251953 C-589.46338379 1307.5863916 -590.07520508 1307.09026367 -590.70556641 1306.57910156 C-604.03213376 1295.70197691 -616.29872409 1283.68310911 -626.8515625 1270.08251953 C-627.71699279 1269.00558423 -628.58427585 1267.93013596 -629.453125 1266.85595703 C-676.00378831 1209.00273309 -704.44763648 1137.21258656 -726.8515625 1067.08251953 C-727.45411865 1065.2059668 -727.45411865 1065.2059668 -728.06884766 1063.29150391 C-761.08564029 959.58473131 -774.57649254 849.84831823 -781.5390625 703.14501953 C-781.57539795 702.06792725 -781.6117334 700.99083496 -781.64916992 699.88110352 C-782.26161819 677.8816261 -781.81635802 655.88335632 -781.0390625 633.89501953 C-780.9948819 632.62527283 -780.95070129 631.35552612 -780.90518188 630.04730225 C-777.2769069 527.17334007 -765.60858962 424.52190301 -631.8515625 84.08251953 C-630.72234375 82.6690625 -630.72234375 82.6690625 -629.5703125 81.22705078 C-625.19920588 75.80059137 -620.65929229 70.56303925 -615.96484375 65.41455078 C-614.07779713 63.33217217 -612.24098017 61.21748889 -610.4140625 59.08251953 C-602.94979634 50.55438096 -594.8060627 43.01764146 -585.8515625 36.08251953 C-585.29339844 35.64794434 -584.73523438 35.21336914 -584.16015625 34.765625 C-567.2917346 21.72040331 -549.01179209 12.00263484 -528.6015625 5.77001953 C-527.81040039 5.52743408 -527.01923828 5.28484863 -526.20410156 5.03491211 C-514.56839853 1.64136532 -503.25728781 0.70201523 -491.1640625 0.77001953 C-490.1031691 0.77375076 -490.1031691 0.77375076 -489.02084351 0.77755737 C-478.38329172 0.83540037 -468.14907708 1.15351327 -457.8515625 4.08251953 C-457.03719727 4.31358398 -456.22283203 4.54464844 -455.38378906 4.78271484 C-413.21683905 17.13904557 -379.3649362 46.74342423 -352.8515625 81.08251953 C-352.31595703 81.77265137 -351.78035156 82.4627832 -351.22851562 83.17382812 C-335.55713343 103.4436805 -321.9769503 124.78895973 -309.9375 147.39501953 C-309.59957428 148.02907715 -309.26164856 148.66313477 -308.91348267 149.31640625 C-307.22856887 152.4819198 -305.55231209 155.65161093 -303.88916016 158.82861328 C-303.27862793 159.98490234 -302.6680957 161.14119141 -302.0390625 162.33251953 C-301.49636719 163.36892578 -300.95367188 164.40533203 -300.39453125 165.47314453 C-299.03781165 167.76754628 -297.73486525 169.25011685 -295.8515625 171.08251953 C-295.8515625 171.74251953 -295.8515625 172.40251953 -295.8515625 173.08251953 C-294.52817618 173.76871985 -293.19206302 174.43038414 -291.8515625 175.08251953 C-290.706875 175.63939453 -290.706875 175.63939453 -289.5390625 176.20751953 C-285.43103415 177.54501713 -281.94775898 177.97143914 -277.87109375 176.24267578 C-269.33152668 171.33696704 -264.04842929 163.10000001 -258.29296875 155.34814453 C-243.23371217 135.12239513 -226.42361223 116.61460616 -208.67471313 98.73043823 C-207.68535553 97.733046 -206.69748332 96.73417763 -205.71127319 95.7336731 C-199.09746549 89.03405454 -192.2127068 82.9441298 -184.8515625 77.08251953 C-183.82404541 76.21909206 -182.80063392 75.35069992 -181.78515625 74.47314453 C-135.53794814 34.81200205 -77.45838061 7.89044584 -16.8515625 1.08251953 C-15.15580078 0.88529297 -15.15580078 0.88529297 -13.42578125 0.68408203 C-8.95079432 0.2716922 -4.48939451 0.1299157 0 0 Z " fill="#8C9F00" transform="translate(820.8515625,26.91748046875)"/>
<path d="M0 0 C1.26706223 -0.00751056 2.53412445 -0.01502111 3.8395825 -0.02275926 C5.24609557 -0.01592895 6.65260733 -0.00882437 8.05911779 -0.00147593 C9.5590957 -0.00460482 11.05907135 -0.00904819 12.55904192 -0.01468903 C16.7005719 -0.026417 20.84189326 -0.01935751 24.98342001 -0.00935517 C29.48161079 -0.00176983 33.97976869 -0.01151494 38.47795486 -0.01908517 C46.36811733 -0.02994235 54.25821828 -0.02957801 62.14838362 -0.02194369 C73.88109456 -0.01062213 85.61375334 -0.01638395 97.3464639 -0.02556861 C118.29792221 -0.04138865 139.24935312 -0.03998759 160.20081405 -0.03133187 C178.53545391 -0.02379416 196.8700837 -0.02181092 215.20472479 -0.0253998 C217.02685999 -0.02574354 217.02685999 -0.02574354 218.88580601 -0.02609421 C223.81652603 -0.02702818 228.74724605 -0.02798338 233.67796605 -0.02897351 C279.96037237 -0.03815673 326.2427612 -0.02982026 372.52516482 -0.01368281 C413.67146855 0.00055469 454.81774442 -0.00071917 495.96404791 -0.01506579 C542.16017586 -0.03111919 588.35628836 -0.03750554 634.55241871 -0.028229 C639.47431167 -0.0272668 644.39620463 -0.02632828 649.31809759 -0.0253998 C650.53005095 -0.02516257 651.7420043 -0.02492534 652.99068351 -0.02468092 C671.3167142 -0.02126416 689.64273373 -0.02526739 707.96876287 -0.03283846 C728.79997956 -0.04140144 749.63116448 -0.03930343 770.46237719 -0.02299623 C782.13018958 -0.01416443 793.79793326 -0.01364528 805.46574392 -0.02493476 C813.24939003 -0.03163735 821.03298079 -0.02751993 828.81661866 -0.01442045 C833.25812871 -0.00725131 837.69950176 -0.00491156 842.14100772 -0.0156384 C846.17698611 -0.02528691 850.21270523 -0.02127418 854.24866451 -0.00609642 C855.7040227 -0.0030606 857.15940208 -0.00511067 858.61474358 -0.01271423 C860.58408452 -0.02227774 862.55349282 -0.01167327 864.52282238 0 C866.16151457 0.00030492 866.16151457 0.00030492 867.83331165 0.00061599 C871.16607175 0.42793177 873.02541636 1.47143001 875.76141119 3.37604749 C876.39305182 3.77565687 877.02469244 4.17526624 877.67547369 4.58698499 C881.34347731 7.08256736 884.14701803 9.10265384 885.76141119 13.37604749 C886.30546241 18.01197694 886.35322944 21.98527461 884.51141119 26.31354749 C881.34234664 30.04851643 878.24639582 31.75974854 873.57391119 33.12604749 C872.4253565 33.46378187 871.27680182 33.80151624 870.09344244 34.14948499 C868.64993962 34.56012767 867.20586718 34.96877031 865.76141119 35.37604749 C864.41828863 35.75551527 864.41828863 35.75551527 863.04803228 36.14264905 C857.75728056 37.63386142 852.46329505 39.11321302 847.16766119 40.58698499 C841.52514822 42.15902004 835.89141542 43.75986674 830.26141119 45.37604749 C821.53741383 47.87842202 812.79958632 50.32941078 804.05828619 52.77057874 C796.60745018 54.8535095 789.16656308 56.96916913 781.72991705 59.10212171 C773.69373774 61.40341557 765.64427059 63.65647459 757.59246588 65.90241468 C752.05644878 67.44779238 746.52948215 69.01788888 741.01141119 70.62604749 C734.64954831 72.45725368 728.22673892 73.95840088 721.76141119 75.37604749 C721.64797369 76.25776624 721.53453619 77.13948499 721.41766119 78.04792249 C718.53173531 92.68368945 704.52757918 105.20812956 692.83562994 113.43464124 C669.77454275 128.16731587 644.97732899 135.87170976 617.64797735 135.77045667 C615.98342421 135.77535862 614.31887446 135.78155439 612.65433037 135.78891456 C608.12666542 135.80517223 603.5991762 135.80302538 599.07149243 135.79753959 C594.17012701 135.7948517 589.26880659 135.80943403 584.36745977 135.82163465 C574.78232293 135.84261763 565.19724667 135.84723358 555.61208956 135.84544677 C547.81421628 135.84413543 540.01636178 135.84796216 532.21849203 135.85537183 C529.96613761 135.8574712 527.71378319 135.8595688 525.46142876 135.86166465 C524.34010645 135.86270818 523.21878414 135.86375171 522.06348236 135.86482686 C500.88868575 135.88370077 479.71392383 135.8826879 458.5391223 135.87585753 C439.20710023 135.87028528 419.87521081 135.89109909 400.54321973 135.924218 C380.6521173 135.95802794 360.76107828 135.97311418 340.8699466 135.96850097 C329.71910901 135.96626352 318.56839398 135.97139291 307.41758108 135.99639356 C297.92287171 136.01750135 288.4283521 136.02090532 278.93363468 136.00209397 C274.09838471 135.99299393 269.26348762 135.99161509 264.42826605 136.01244962 C239.38227611 136.11322062 216.92188249 135.02767934 193.76141119 124.37604749 C192.73016119 123.91456312 191.69891119 123.45307874 190.63641119 122.97760999 C178.67399298 117.33907433 168.18913692 109.62022458 158.76141119 100.37604749 C158.12590338 99.76503187 157.49039557 99.15401624 156.83562994 98.52448499 C151.49836981 92.96237354 144.76141119 83.30857461 144.76141119 75.37604749 C143.91320807 75.20589124 143.06500494 75.03573499 142.19109869 74.86042249 C135.01510514 73.37790954 127.99082716 71.66802053 120.95672369 69.59870374 C117.68908311 68.63758519 114.41126427 67.71810997 111.12859869 66.80964124 C100.60947607 63.89789104 90.1267111 60.91352347 79.69891119 57.68854749 C72.15673976 55.3571003 64.62946831 53.3043812 56.95281744 51.46198499 C51.80839006 50.17556469 46.76149187 48.57392497 41.69891119 47.00104749 C33.84869147 44.56264287 25.978231 42.33826042 18.01141119 40.31354749 C10.6835386 38.43209201 3.38190081 36.49326286 -3.86358881 34.31354749 C-4.63928217 34.09239271 -5.41497553 33.87123792 -6.21417475 33.64338148 C-11.0366567 32.15047793 -13.96150303 30.40020838 -17.23858881 26.37604749 C-18.71883661 21.93530409 -19.04057827 18.00541756 -18.23858881 13.37604749 C-14.18662681 5.27212349 -9.41262559 0.00175143 0 0 Z " fill="#FDF7EB" transform="translate(938.238588809967,862.6239525079727)"/>
<path d="M0 0 C231.66 0 463.32 0 702 0 C699.3991828 1.73387813 697.89836396 2.45230709 694.9921875 3.26171875 C694.18273682 3.49004395 693.37328613 3.71836914 692.53930664 3.95361328 C691.22047485 4.31688721 691.22047485 4.31688721 689.875 4.6875 C688.4971936 5.07397705 688.4971936 5.07397705 687.09155273 5.46826172 C685.10677722 6.02432459 683.12131509 6.57794122 681.13525391 7.12939453 C677.93645989 8.01764398 674.73950523 8.91225628 671.54296875 9.80859375 C667.25957142 11.00945292 662.97570408 12.20860766 658.69140625 13.40625 C653.23774465 14.93209878 647.78496101 16.45961482 642.34765625 18.04296875 C639.75666395 18.78368417 637.16377249 19.48840337 634.55859375 20.17578125 C633.01817614 20.59615992 631.47781091 21.01673054 629.9375 21.4375 C629.22207031 21.61877441 628.50664063 21.80004883 627.76953125 21.98681641 C622.08029861 23.57001304 618.84193539 26.09051647 615.69921875 31.0546875 C614.93017845 33.19425213 614.83340678 34.85870559 614.8125 37.125 C613.9118989 46.28111119 606.51936524 53.12890092 599.8515625 58.83984375 C584.249819 70.65869876 563.56567226 79.10504688 543.93920326 79.13422108 C542.9217034 79.13774942 542.9217034 79.13774942 541.88364798 79.14134905 C539.61810448 79.14798858 537.35261901 79.14758236 535.08706665 79.14717102 C533.44322001 79.1504728 531.79937419 79.15419903 530.15552938 79.1583125 C525.6435345 79.16830499 521.13155293 79.17204485 516.61954856 79.17470181 C511.75085625 79.17861306 506.88217439 79.18819083 502.01348877 79.19691467 C490.2579735 79.21665614 478.5024574 79.22674245 466.74692971 79.23564246 C461.20628972 79.24002925 455.66565068 79.24539505 450.12501144 79.25063133 C431.69844829 79.26764146 413.27188573 79.28213457 394.84531593 79.28938007 C390.06598535 79.29128986 385.28665478 79.29321021 380.50732422 79.29516602 C379.3194961 79.29564976 378.13166798 79.2961335 376.90784506 79.2966319 C357.67536215 79.30492828 338.44294151 79.33025957 319.21048577 79.36274669 C299.44965398 79.39585327 279.6888538 79.4138321 259.92799413 79.41702431 C248.83923121 79.4191861 237.7505591 79.42788615 226.66182327 79.45348549 C217.21619014 79.47524167 207.77066989 79.48321876 198.32501455 79.47351871 C193.5107381 79.46898823 188.69669432 79.47078699 183.8824501 79.49028015 C179.46413158 79.50801468 175.04621367 79.50683158 170.62789027 79.49138286 C169.04031945 79.48902229 167.45272011 79.49324855 165.86519261 79.50521151 C140.8696699 79.68170649 116.55616477 71.09529417 98 54 C92.68659499 48.12677228 89.31379778 42.92121518 88.1875 35 C87.26293822 30.25015208 86.04677208 27.9031191 82 25 C75.4471979 22.29210689 68.70634894 20.4326948 61.875 18.5625 C59.62232418 17.93906095 57.36971932 17.31536541 55.1171875 16.69140625 C54.04823242 16.39637207 52.97927734 16.10133789 51.87792969 15.79736328 C48.57962123 14.88352926 45.28884373 13.94728541 42 13 C34.36381194 10.80602059 26.70925235 8.67769549 19.0546875 6.54882812 C12.68055818 4.77065477 6.33012275 2.92912162 0 1 C0 0.67 0 0.34 0 0 Z " fill="#8C9F01" transform="translate(1020,891)"/>
<path d="M0 0 C1.11434921 -0.0033284 2.22869843 -0.0066568 3.3768158 -0.01008606 C5.72052604 -0.01511401 8.06424335 -0.01749568 10.40795898 -0.01733398 C13.93160261 -0.01951072 17.45492755 -0.03768469 20.97851562 -0.05664062 C34.0872403 -0.09023513 46.91459982 0.35294544 59.90234375 2.16796875 C61.1855249 2.34497314 62.46870605 2.52197754 63.79077148 2.7043457 C122.23188762 11.29418718 183.96667311 33.18996946 230.5559082 70.36230469 C232.82859174 72.1000051 234.38830946 73.14690177 237.28515625 73.265625 C241.18658883 71.62935253 244.38622569 69.23587855 247.77734375 66.73046875 C249.31134415 65.62209644 250.8465205 64.51535002 252.3828125 63.41015625 C253.53015869 62.58209473 253.53015869 62.58209473 254.70068359 61.73730469 C257.78467068 59.53904909 260.92726059 57.43838116 264.08984375 55.35546875 C270.18838279 51.3242033 276.24037551 47.22836766 282.27734375 43.10546875 C283.19362549 42.48003174 284.10990723 41.85459473 285.05395508 41.21020508 C289.10405971 38.44521978 293.1535737 35.67936983 297.203125 32.91357422 C300.01323358 30.99475625 302.8245546 29.07772433 305.63653564 27.16165161 C307.23421884 26.07237078 308.83074879 24.98139905 310.42724609 23.89038086 C313.24456998 21.97110477 316.06949403 20.06423938 318.90234375 18.16796875 C319.67980957 17.64557617 320.45727539 17.12318359 321.25830078 16.58496094 C321.95552246 16.13024414 322.65274414 15.67552734 323.37109375 15.20703125 C324.25571289 14.62622803 324.25571289 14.62622803 325.15820312 14.03369141 C328.54743586 12.35140987 331.17172883 12.68659908 334.90234375 13.16796875 C339.54481015 14.86425455 342.52976049 16.78781503 344.90234375 21.16796875 C345.80519465 25.76889694 345.95039547 30.02493763 343.85546875 34.30859375 C338.96020933 40.51598456 331.76910273 44.46915212 325.19384766 48.6796875 C320.92099233 51.4548128 316.72997052 54.35058556 312.52734375 57.23046875 C310.63822924 58.52113842 308.74890114 59.81149552 306.859375 61.1015625 C305.4045874 62.09518799 305.4045874 62.09518799 303.92041016 63.10888672 C298.69003261 66.67732259 293.45202783 70.23453352 288.21484375 73.79296875 C281.52059624 78.34172944 274.8297136 82.89505872 268.15698242 87.4753418 C266.59309185 88.54665577 265.02690924 89.61463292 263.45825195 90.67895508 C259.85399224 93.12544261 256.28937327 95.60323635 252.78515625 98.19140625 C241.06394402 106.71526452 241.06394402 106.71526452 233.3671875 105.87890625 C228.81782677 104.5667293 225.58053198 102.07671031 221.90234375 99.16796875 C219.8270295 97.63428112 217.74697847 96.11223596 215.65234375 94.60546875 C215.06799561 94.18458984 214.48364746 93.76371094 213.8815918 93.33007812 C183.44466049 71.67967967 150.14088054 56.1501522 114.90234375 44.16796875 C114.01417969 43.85843262 113.12601563 43.54889648 112.2109375 43.22998047 C99.57308511 38.83056757 86.77435532 36.13430979 73.62744141 33.69873047 C71.24576677 33.23485655 68.9005411 32.69992758 66.54296875 32.12890625 C16.77146052 20.90275268 -39.51396971 28.66448916 -87.28515625 44.60546875 C-88.05945984 44.86330139 -88.83376343 45.12113403 -89.63153076 45.38677979 C-128.55124953 58.4368998 -163.58229527 78.32404998 -196.68359375 102.4453125 C-201.57290169 105.93428467 -206.21199668 105.9067892 -212.09765625 105.16796875 C-215.54963958 103.53353263 -217.52108833 101.13765117 -219.47265625 97.85546875 C-220.68083863 92.66028453 -221.0682772 88.99970469 -218.57421875 84.29296875 C-215.50705917 80.42273585 -212.13031387 77.90596163 -208.09765625 75.10546875 C-207.30512451 74.54601562 -206.51259277 73.9865625 -205.69604492 73.41015625 C-203.1752764 71.64455676 -200.64030965 69.90188396 -198.09765625 68.16796875 C-196.89616943 67.3483667 -196.89616943 67.3483667 -195.67041016 66.51220703 C-167.26714211 47.29704036 -137.17184179 32.15329603 -105.09765625 20.16796875 C-104.15148438 19.81065674 -103.2053125 19.45334473 -102.23046875 19.08520508 C-70.11783371 7.13744955 -34.31252366 0.03679404 0 0 Z " fill="#FEF7EB" transform="translate(1309.09765625,727.83203125)"/>
<path d="M0 0 C0.85207031 -0.02578125 1.70414063 -0.0515625 2.58203125 -0.078125 C10.26726465 0.88973048 16.96141124 8.47380694 21.55859375 14.20703125 C31.50308636 28.07565754 36.553864 41.14449243 36.4375 58.25 C36.44910156 59.95542969 36.44910156 59.95542969 36.4609375 61.6953125 C36.41766909 80.34399619 28.89239361 96.84308849 15.8125 110 C11.52249131 114.22216556 7.06633314 117.98520381 2.24609375 121.59375 C-5.85116225 128.10843035 -11.86927357 136.91203538 -13.8125 147.25 C-14.81713547 159.88205587 -12.78030688 172.07833165 -4.8125 182.25 C-0.93422508 186.51610241 3.31664457 190.01603153 8.125 193.1875 C23.50114243 203.54286123 32.16870045 219.48998624 36.48828125 237.2421875 C40.08444161 255.83539558 35.40464405 274.51007539 25.1875 290.25 C19.03740063 299.06640012 11.53630866 305.67807426 3.0625 312.1875 C-5.15887968 318.69555949 -12.14330177 327.64131789 -13.8125 338.25 C-14.836822 352.59050793 -12.09989105 364.79489674 -2.875 376 C-0.90456778 378.19955225 1.15222654 380.13174724 3.4375 382 C6.24263476 384.29511026 7.98078433 385.85346743 8.5234375 389.51953125 C8.61195142 395.28178724 8.21531955 398.7867405 4.1875 403.25 C0.45784282 406.54087398 -3.36819899 406.94662407 -8.1953125 406.7890625 C-13.1179928 405.7751373 -16.24966495 402.62531741 -19.8125 399.25 C-20.49183594 398.65960937 -21.17117188 398.06921875 -21.87109375 397.4609375 C-33.24432374 387.04101919 -41.5873994 369.81735543 -42.98950195 354.28979492 C-43.58948633 334.12697323 -39.31603591 314.82516111 -25.25 299.625 C-21.3374467 295.55781086 -17.2083786 291.78514712 -12.8125 288.25 C-4.46392732 281.30118801 2.51251433 274.68400453 6.1875 264.25 C6.41308594 263.61449219 6.63867188 262.97898437 6.87109375 262.32421875 C10.02517311 251.81787165 8.42962329 241.19403607 4.1875 231.25 C-0.45808728 222.91324066 -6.39688616 217.42410826 -14.3125 212.3125 C-29.25417654 202.51177319 -37.56079751 186.19428492 -41.8125 169.25 C-45.20805058 149.70871886 -41.75849924 131.77027432 -30.7421875 115.12109375 C-25.32804158 107.58467808 -19.3120126 101.78351554 -12.046875 96.078125 C-0.96211069 87.29511503 5.85827633 78.48656337 8.1875 64.25 C9.21538817 51.54462814 6.28788241 41.15804669 -1.8125 31.25 C-4.39425943 28.56638056 -7.0273241 25.96698179 -9.73828125 23.4140625 C-13.28676239 19.71188067 -13.25982715 15.7373137 -13.23828125 10.83203125 C-12.5342284 6.56249977 -10.04095385 3.98498551 -6.8125 1.25 C-4.38715731 0.03732866 -2.70623446 0.04868788 0 0 Z " fill="#FDF7EB" transform="translate(1284.8125,267.75)"/>
<path d="M0 0 C1.0754998 -0.00480972 1.0754998 -0.00480972 2.17272687 -0.0097166 C4.58782502 -0.01805237 7.00267748 -0.01207989 9.41777992 -0.00622082 C11.16174821 -0.00923988 12.90571517 -0.01312812 14.64967978 -0.01781338 C19.45194711 -0.02813388 24.25414011 -0.02590129 29.05641365 -0.02163279 C34.23170219 -0.01917288 39.40697249 -0.02817057 44.58225441 -0.03567028 C54.72514103 -0.04843996 64.86800121 -0.05020814 75.01089452 -0.04787002 C83.25302853 -0.04608918 91.49515448 -0.04783145 99.73728752 -0.05209446 C101.49484278 -0.05298724 101.49484278 -0.05298724 103.28790421 -0.05389806 C105.66799469 -0.05510978 108.04808517 -0.05632391 110.42817564 -0.05754044 C132.76461749 -0.06842477 155.10104426 -0.06624929 177.43748696 -0.06015559 C197.88358821 -0.05498596 218.32964181 -0.06624153 238.77573363 -0.08525381 C259.75570399 -0.10461339 280.73565178 -0.1128915 301.71563113 -0.10913056 C313.49991207 -0.10721561 325.28415246 -0.10973455 337.06842613 -0.1238451 C347.10073464 -0.13573595 357.13297764 -0.13718966 367.165287 -0.12505493 C372.2859745 -0.11915001 377.40654204 -0.11811123 382.52722168 -0.13005733 C387.21272398 -0.14086136 391.89800539 -0.13787845 396.58349712 -0.12379565 C398.28064658 -0.12113354 399.97781304 -0.12356243 401.67494588 -0.13153151 C403.97861861 -0.14159981 406.2815179 -0.1332485 408.5851593 -0.12025452 C410.50594978 -0.12033704 410.50594978 -0.12033704 412.4655441 -0.12042123 C417.34679688 0.40956183 420.61501376 2.12256948 424.29342079 5.31697559 C426.66968245 9.61252552 426.56848514 13.45034153 425.91842079 18.25447559 C423.96718749 22.97851411 420.46899861 25.97918668 415.91842079 28.25447559 C413.64685983 28.35374368 411.37228133 28.38551438 409.09855461 28.38869667 C408.0290489 28.39222502 408.0290489 28.39222502 406.93793702 28.39582464 C404.52445453 28.4025354 402.11102562 28.4020558 399.69753456 28.40164661 C397.95941801 28.40494395 396.22130223 28.40866924 394.48318744 28.41278809 C389.68782452 28.42283104 384.89247412 28.42652856 380.09710217 28.4291774 C374.93268804 28.43307366 369.76828389 28.44265243 364.60387611 28.45139027 C352.12255743 28.47117368 339.64123791 28.48122316 327.15990746 28.49011806 C321.28710128 28.49449779 315.41429601 28.4998654 309.54149055 28.50510693 C290.02737172 28.5221209 270.51325346 28.53661615 250.99912834 28.54385567 C245.93251228 28.54576567 240.86589621 28.54768598 235.79928017 28.54964161 C233.91027831 28.55036722 233.91027831 28.55036722 231.98311481 28.55110749 C211.5724433 28.55941177 191.16183031 28.58475467 170.75118437 28.61722229 C149.81196112 28.65026009 128.87276764 28.66830145 107.93351817 28.67149991 C96.17042523 28.67366802 84.40741765 28.68246069 72.64435005 28.70796108 C62.62845519 28.7296233 52.6126664 28.73774061 42.59675077 28.7279943 C37.48413789 28.72343661 32.3717441 28.72542086 27.259161 28.74475574 C22.58093212 28.7622956 17.90308363 28.76146475 13.22485122 28.74585845 C11.53032904 28.74346836 9.83578116 28.74787798 8.14129844 28.7596871 C5.84095089 28.77472854 3.54196473 28.7651888 1.24165154 28.74946022 C-0.67620852 28.75092543 -0.67620852 28.75092543 -2.63281322 28.75242025 C-7.90227398 27.99159744 -10.94741902 25.50802107 -14.45657921 21.62947559 C-16.6537552 17.06611006 -17.02694836 13.23180376 -16.08157921 8.25447559 C-12.47622534 1.30027525 -7.33161791 0.00496397 0 0 Z " fill="#FDF6EA" transform="translate(1168.081579208374,919.7455244064331)"/>
<path d="M0 0 C3.32316782 2.54405192 5.46789711 5.89370336 6.15625 10.0078125 C6.55136005 31.42277708 -16.8411363 52.60043836 -30.55078125 67.1953125 C-33.85481483 70.72026957 -37.0235691 74.34321221 -40.1796875 78 C-41.11933284 79.07462012 -42.05948666 80.14879573 -43 81.22265625 C-70.82976885 109.34109382 -70.82976885 109.34109382 -83.390625 144.234375 C-83.32101563 144.81703125 -83.25140625 145.3996875 -83.1796875 146 C-59.96826411 143.78516952 -35.96199584 119.39633063 -19.5703125 104.20703125 C-17.39215212 102.19614789 -15.17629912 100.24612946 -12.9296875 98.3125 C-9.16768198 95.0428633 -5.66692613 91.55776705 -2.1796875 88 C-1.38820313 87.21109375 -0.59671875 86.4221875 0.21875 85.609375 C16.07387363 69.70663838 29.13756094 51.3712289 40.7578125 32.1875 C42.8203125 29 42.8203125 29 45.8203125 27 C48.54315155 26.68745622 51.06473736 26.86666572 53.8203125 27 C55.52023404 28.69992154 55.15406928 30.72670557 55.2578125 33.0625 C55.15909056 41.44399261 52.10821742 48.4499961 48.8203125 56 C48.49885254 56.74217773 48.17739258 57.48435547 47.84619141 58.24902344 C45.24805102 64.20167696 42.54142655 70.10278202 39.8203125 76 C39.29969238 77.13147461 38.77907227 78.26294922 38.24267578 79.42871094 C34.77855649 86.95711301 31.30407915 94.48067072 27.8203125 102 C28.58472656 101.84063965 29.34914063 101.6812793 30.13671875 101.51708984 C36.3435729 100.32111849 42.61452358 99.60017242 48.0703125 103.0625 C50.25769961 106.73418551 50.34725138 108.78448897 49.8203125 113 C48.8203125 115.9375 48.8203125 115.9375 47.8203125 118 C46.8303125 118 45.8403125 118 44.8203125 118 C44.4903125 115.69 44.1603125 113.38 43.8203125 111 C37.38851297 110.09729129 32.87668326 111.47229768 27.1328125 114.375 C26.50366943 114.67212891 25.87452637 114.96925781 25.22631836 115.27539062 C19.33743747 118.44340551 16.86098805 123.21776522 13.8203125 129 C13.33328857 129.8971875 12.84626465 130.794375 12.34448242 131.71875 C11.33307415 133.59012749 10.32918413 135.46558491 9.33227539 137.34472656 C-3.70450274 161.91831548 -18.32287716 186.39668335 -37.1796875 207 C-37.64552246 207.50966309 -38.11135742 208.01932617 -38.59130859 208.54443359 C-49.93374019 220.80745484 -64.75959129 233.934913 -82.1171875 235.3125 C-85.25728711 235.26572012 -86.21734132 234.97789885 -89.0546875 233.3125 C-92.90113146 229.12666392 -93.72159514 225.12193288 -93.5390625 219.5546875 C-91.40407666 204.37772293 -78.97403193 188.2970868 -69.1796875 177 C-68.20712945 175.84606566 -67.23587453 174.6910323 -66.265625 173.53515625 C-59.36751027 165.35382181 -52.32408272 157.79386198 -44.203125 150.80859375 C-42.16671438 148.98840433 -40.26884471 147.08487121 -38.3671875 145.125 C-33.63180374 140.33433939 -28.45743237 136.17503602 -23.1796875 132 C-22.16777344 131.18273437 -21.15585938 130.36546875 -20.11328125 129.5234375 C-13.38677365 124.15596748 -6.42289683 119.51998234 1.01953125 115.203125 C1.61386963 114.85145264 2.20820801 114.49978027 2.82055664 114.13745117 C4.29015494 113.30155098 5.78930597 112.51707584 7.30249023 111.76293945 C14.42043614 108.00195191 17.28589103 103.95849119 20.5078125 96.6875 C20.96494629 95.71417725 21.42208008 94.74085449 21.89306641 93.73803711 C23.23901318 90.84033477 24.53773125 87.92622315 25.8203125 85 C26.17786621 84.19401367 26.53541992 83.38802734 26.90380859 82.55761719 C31.14870301 72.9046143 34.64509314 63.0524226 37.8203125 53 C37.22605469 53.78761719 36.63179687 54.57523438 36.01953125 55.38671875 C21.17471118 74.94427639 4.83969492 94.22818626 -13.9609375 110.12109375 C-15.79573073 111.67485351 -17.60027047 113.25209233 -19.3984375 114.84765625 C-65.24287896 155.36938104 -65.24287896 155.36938104 -86.6171875 157.3125 C-90.80529643 156.94512202 -92.28420396 155.98064482 -95.1796875 153 C-97.51613945 145.99064414 -96.90147043 139.8660714 -93.82470703 133.22094727 C-89.4638743 124.52746334 -84.10312445 116.68992185 -78.1796875 109 C-77.74785156 108.43603516 -77.31601563 107.87207031 -76.87109375 107.29101562 C-71.06431179 99.73530675 -65.046785 92.34913208 -59.02075195 84.96801758 C-55.47869498 80.62307334 -51.99806769 76.2359049 -48.5546875 71.8125 C-45.05612301 67.3189425 -41.45613564 62.9418015 -37.7421875 58.625 C-17.05881865 35.73589484 -17.05881865 35.73589484 -7.1796875 8 C-34.49741101 6.4138096 -61.657593 26.06222792 -81.3671875 43.5 C-82.97897099 44.99181255 -84.58315613 46.49187591 -86.1796875 48 C-87.01242188 48.76828125 -87.84515625 49.5365625 -88.703125 50.328125 C-95.28191336 56.60327697 -100.34749807 63.35313404 -105.1796875 71 C-105.65792969 71.74378906 -106.13617188 72.48757813 -106.62890625 73.25390625 C-109.54657757 78.32144065 -109.86636038 83.22519364 -109.1796875 89 C-107.99417578 90.40550582 -107.99417578 90.40550582 -104.6171875 90.23046875 C-100.06570695 90.16860594 -96.37246772 88.99408819 -92.1796875 87.3125 C-91.48270752 87.04356934 -90.78572754 86.77463867 -90.06762695 86.49755859 C-85.03931966 84.49894026 -80.68458684 82.00326622 -76.1796875 79 C-75.1896875 79 -74.1996875 79 -73.1796875 79 C-73.74078388 82.36657829 -74.56498007 83.7337651 -77.3046875 85.75 C-86.7881583 92.49686126 -99.18435275 100.69545367 -111.1796875 99 C-116.00128139 96.63468979 -118.88290497 93.85857844 -121.1796875 89 C-123.2808308 79.74869741 -119.02975803 72.3305282 -114.28662109 64.71142578 C-111.55825176 60.49310442 -108.56840031 56.70568425 -105.1796875 53 C-104.73560547 52.51354004 -104.29152344 52.02708008 -103.83398438 51.52587891 C-90.93060612 37.57616345 -75.61829939 26.43677809 -59.1796875 17 C-57.98883545 16.31526611 -57.98883545 16.31526611 -56.77392578 15.61669922 C-16.15480703 -7.41152437 -16.15480703 -7.41152437 0 0 Z " fill="#FBFCF7" transform="translate(246.1796875,667)"/>
<path d="M0 0 C4.26514102 1.86402459 7.26357936 4.01810581 10.0625 7.75 C11.33770776 12.17072025 11.47086443 15.60969254 10 20 C7.39448983 23.95006488 4.28416265 27.04439066 0.49609375 29.86328125 C-2.34097054 32.29187932 -3.85190195 34.6327976 -5.6875 37.875 C-6.26886719 38.88304687 -6.85023437 39.89109375 -7.44921875 40.9296875 C-12.30690479 50.5471717 -12.45083158 61.88597923 -10.3125 72.37109375 C-6.42683955 83.78522131 0.45340752 91.47626032 10.4375 97.875 C24.58563243 107.21133105 34.20271122 123.26409108 38.3125 139.5625 C41.57686798 158.74454801 38.15742465 178.10506771 27.73046875 194.58984375 C22.68955106 201.61071556 16.68862558 207.57111556 10 213 C0.13669235 221.18614603 -9.63364636 229.87296441 -11.28222656 243.29833984 C-12.34535015 256.94532071 -10.43323664 268.26471487 -1.6796875 279.1953125 C0.77132562 281.82872659 3.49369961 284.0971727 6.23046875 286.42578125 C9.92762587 289.71486363 11.17172754 292.51656757 11.5 297.375 C11.33645594 302.27314454 9.53649147 305.6403331 6 309 C1.5740892 311.76850906 -2.93749084 311.62978583 -8 311 C-11.0625 309.5 -11.0625 309.5 -14 307 C-14.67546875 306.47535156 -15.3509375 305.95070313 -16.046875 305.41015625 C-26.22817906 297.10712725 -32.65959098 286.28910989 -37 274 C-37.35191406 273.03964844 -37.70382812 272.07929687 -38.06640625 271.08984375 C-43.5043985 253.09213719 -40.56694605 233.58544607 -32.1875 217.125 C-26.20543514 206.94633351 -18.51876013 199.04767181 -9.23046875 191.85546875 C0.71044964 184.09040117 7.55107367 175.63588024 10 163 C11.49513792 149.49468413 9.23150936 138.36599663 1.05078125 127.27734375 C-1.78632499 124.12680482 -4.97035729 121.93821203 -8.515625 119.64453125 C-12.33972305 117.11317075 -15.63983853 114.10656438 -19 111 C-19.58394531 110.50371094 -20.16789062 110.00742187 -20.76953125 109.49609375 C-31.75710162 99.59983962 -39.35648243 82.206364 -40.12280273 67.6706543 C-40.79450604 46.54568754 -36.55813288 28.05383146 -22 12 C-21.43539063 11.36707031 -20.87078125 10.73414063 -20.2890625 10.08203125 C-14.72470994 4.1777748 -8.58679676 -1.53335656 0 0 Z " fill="#FDF7EB" transform="translate(1362,363)"/>
<path d="M0 0 C3.49093033 1.85266696 6.16329161 4.27135669 9 7 C9.60457031 7.51691406 10.20914062 8.03382813 10.83203125 8.56640625 C21.55491455 18.22426276 30.11847683 35.07893665 31.18896484 49.55541992 C31.26773719 52.35234007 31.27298046 55.13962843 31.25 57.9375 C31.26160156 59.34418945 31.26160156 59.34418945 31.2734375 60.77929688 C31.2203207 79.88806441 23.36982233 96.90275095 10 110.375 C6.16159994 114.14216338 2.17183566 117.53283097 -2.19921875 120.6640625 C-11.06839232 127.24379647 -16.49937697 136.26673222 -19 147 C-20.43950968 159.96682073 -18.35654209 171.06857264 -10.78125 181.87109375 C-8.17790727 184.98254504 -5.20023457 187.53245289 -2.05078125 190.078125 C0.81234496 192.76128328 2.68225724 195.35403525 3.43359375 199.24609375 C3.44321065 204.64117649 2.70027853 207.79968383 -1 212 C-4.84181502 215.38983678 -8.64724896 215.51869058 -13.58203125 215.34375 C-17.24538669 214.82294987 -19.19343955 213.37947516 -22 211 C-22.61359375 210.525625 -23.2271875 210.05125 -23.859375 209.5625 C-36.37291271 199.4740665 -45.73788943 182.93695659 -48 167 C-49.09469148 154.28889362 -48.90465627 141.91130809 -44 130 C-43.525625 128.845 -43.05125 127.69 -42.5625 126.5 C-36.31094902 112.79467669 -26.860753 103.10285755 -15 94 C-5.77189292 86.83145315 0.69418813 77.49900345 2.31762695 65.68945312 C2.4714136 63.34613213 2.51931282 61.03569809 2.5 58.6875 C2.49033203 57.44528687 2.49033203 57.44528687 2.48046875 56.17797852 C2.12791396 44.27345588 -2.93430245 35.57079016 -11 27 C-12.10147826 26.01472165 -13.22347268 25.0512897 -14.375 24.125 C-17.54726974 21.55697212 -18.70761403 19.67840795 -19.40625 15.66796875 C-19.59134786 10.77058778 -19.36596151 7.76341554 -16.125 3.9375 C-11.45599819 -0.85555741 -6.47514012 -1.03773769 0 0 Z " fill="#FDF7EB" transform="translate(1207,459)"/>
<path d="M0 0 C2.91747944 1.35495587 5.42588484 3.08092806 8 5 C8.57621094 5.41121094 9.15242188 5.82242187 9.74609375 6.24609375 C22.24712737 15.97553562 30.6999495 32.42742458 33 48 C34.61962033 69.51052122 30.94861155 89.18022434 16.77734375 106.05078125 C12.48725463 110.75573614 8.23872355 115.19911632 3.0625 118.9375 C-7.10366342 126.36200124 -13.60151818 134.81592326 -17 147 C-18.24473519 161.38682304 -16.16598312 172.83726347 -7.1640625 184.51953125 C-4.5516409 187.51391341 -1.76887933 190.08854237 1.3359375 192.5625 C3.5261587 194.45452207 4.87452066 196.14445903 5.30078125 199.05078125 C5.32704072 204.11885825 4.89699623 207.65450565 2 212 C-1.80832152 215.45129138 -5.6033622 216.48730722 -10.7578125 216.40234375 C-19.62818178 214.81062243 -27.23954423 205.72081601 -32.32421875 198.8671875 C-37.75954238 191.00472039 -41.25489609 183.1834199 -44 174 C-44.36351562 172.92363281 -44.72703125 171.84726562 -45.1015625 170.73828125 C-49.54130052 152.26511043 -45.01824122 133.20115244 -35.296875 117.28515625 C-28.55180106 107.29453228 -19.6322303 99.6938861 -10.03125 92.53125 C-0.65143872 85.12613584 3.93249246 73.57273909 5.3828125 61.92578125 C5.84930372 50.03025503 1.58842131 40.005714 -6 31 C-8.30627218 28.63323544 -10.64695078 26.33937218 -13.08203125 24.10546875 C-16.07116223 20.8241213 -16.89882359 17.92745047 -17.375 13.5625 C-16.78688714 7.97542783 -14.40354499 5.18521577 -10.1875 1.625 C-6.29561627 -0.35909759 -4.32120574 -0.67053192 0 0 Z " fill="#FDF7EB" transform="translate(1443,267)"/>
<path d="M0 0 C3.25 1.625 3.25 1.625 6 4 C6.52722656 4.38929688 7.05445313 4.77859375 7.59765625 5.1796875 C20.11123751 14.81428993 28.58159374 31.19217721 31.55859375 46.5078125 C34.07087556 66.38374113 30.07981641 86.69278802 17.61035156 102.79443359 C11.33067168 110.35868779 4.27241978 116.68436075 -3.828125 122.2578125 C-10.75480945 127.46842648 -16.01492973 136.79655704 -18.5 145.0625 C-20.4152312 160.14494571 -17.72969275 171.90582061 -8.6875 184.125 C-5.85220565 187.15810559 -2.85635593 189.82665031 0.328125 192.484375 C2.49993112 194.45320859 2.95814272 195.50012749 3.203125 198.42578125 C3.36328215 208.28879212 3.36328215 208.28879212 0 212 C-3.86875073 215.50605535 -8.13164644 215.68479224 -13.15625 215.54296875 C-18.24167037 214.57198876 -21.36034155 211.50793747 -25 208 C-25.60457031 207.47148438 -26.20914062 206.94296875 -26.83203125 206.3984375 C-37.9790258 196.18245603 -46.089148 180.37457503 -47.20507812 165.21386719 C-47.30440588 162.05666341 -47.32200268 158.90868977 -47.3125 155.75 C-47.32861328 154.69425781 -47.34472656 153.63851562 -47.36132812 152.55078125 C-47.37336708 132.87912234 -38.90943298 117.23847667 -25.5 103.25 C-23.1709554 100.98418738 -20.75641069 99.0283524 -18.125 97.125 C-7.41793942 89.23995539 -0.5779562 79.91949795 3 67 C4.16486323 54.17295951 2.27852558 43.82017423 -5.21875 33.12890625 C-7.82209273 30.01745496 -10.79976543 27.46754711 -13.94921875 24.921875 C-16.81234496 22.23871672 -18.68225724 19.64596475 -19.43359375 15.75390625 C-19.44323712 10.34397607 -18.64601285 7.25368166 -15 3 C-10.47075039 -1.10769607 -5.83553041 -0.75708776 0 0 Z " fill="#FDF7EB" transform="translate(1532,459)"/>
<path d="M0 0 C1.72000629 1.72000629 1.25403971 3.89928101 1.3125 6.25 C1.01512653 31.37805828 -18.71834907 51.74087533 -35.4765625 68.47265625 C-42.22807904 75.42138203 -46.02737673 83.27538323 -50 92 C-45.18328995 90.17758445 -40.37125767 88.34327319 -35.5625 86.5 C-34.85426086 86.22877319 -34.14602173 85.95754639 -33.4163208 85.67810059 C-24.40332264 82.21635814 -15.50196285 78.67270802 -6.91235352 74.23632812 C-3.44683509 72.48306707 -0.90003211 71.61735534 3 72 C0.16403317 75.92050521 -2.49091683 78.23447458 -6.6875 80.625 C-7.2662085 80.95491943 -7.84491699 81.28483887 -8.44116211 81.62475586 C-12.62329664 83.92222169 -16.91135443 85.85502118 -21.3046875 87.71484375 C-22.41626221 88.18647949 -23.52783691 88.65811523 -24.6730957 89.14404297 C-26.90023567 90.07609535 -29.13569569 90.98855561 -31.37963867 91.87939453 C-37.83935071 94.56523534 -41.91583998 96.55389188 -45 103 C-45.11128889 106.8805952 -44.43774715 108.43579257 -42.06640625 111.4921875 C-35.43979112 117.79832671 -28.59726778 123.64367303 -21.20703125 129.0390625 C-20.47871094 129.68617188 -19.75039063 130.33328125 -19 131 C-19 131.99 -19 132.98 -19 134 C-23.17598221 133.45472722 -26.42556297 132.52923494 -30.16015625 130.59375 C-31.1133374 130.10100586 -32.06651855 129.60826172 -33.04858398 129.10058594 C-34.54047241 128.3082959 -34.54047241 128.3082959 -36.0625 127.5 C-37.082229 126.96407227 -38.10195801 126.42814453 -39.15258789 125.87597656 C-46.85298793 121.76371464 -54.04965403 117.28279655 -61 112 C-61.556875 113.8253125 -61.556875 113.8253125 -62.125 115.6875 C-63.89617963 121.06949027 -66.32008374 126.08951544 -68.79296875 131.1796875 C-70.19672911 133.94837967 -70.19672911 133.94837967 -70 137 C-68.515 137.99 -68.515 137.99 -67 139 C-67.36623832 145.34813084 -67.36623832 145.34813084 -70.1875 148.25 C-75.71743951 151.69085125 -79.33353229 153.52286021 -86 153 C-86.33 152.67 -86.66 152.34 -87 152 C-86.87854343 144.74296998 -83.15305198 139.04894647 -79.75 132.8125 C-71.83150017 120.03817402 -71.83150017 120.03817402 -68 106 C-70.16212014 103.91908625 -71.61597317 103.06845191 -74.5859375 102.5390625 C-77.69973573 102.63500586 -80.07955823 102.88298432 -83 104 C-85.02929577 106.5354998 -86.22019417 109.07168637 -87.56640625 112.0234375 C-93.380837 124.09590679 -106.88972544 133.08568569 -119 138 C-123.89713481 139.51742205 -128.93466661 139.62942013 -134 139 C-137.1875 137.125 -137.1875 137.125 -139 134 C-140.65443013 125.63760772 -137.69583655 117.58850937 -133.4921875 110.43359375 C-126.67383766 100.30120875 -116.82621033 87.43212636 -105 83 C-101.7578125 82.69921875 -101.7578125 82.69921875 -98.125 82.6875 C-96.93132812 82.67074219 -95.73765625 82.65398437 -94.5078125 82.63671875 C-89.5145092 83.15384259 -86.24828625 84.81741302 -82.625 88.25 C-81 91 -81 91 -81 98 C-71.1 97.01 -71.1 97.01 -61 96 C-60.34 94.02 -59.68 92.04 -59 90 C-58.4208249 88.6168717 -57.81795933 87.24333031 -57.1875 85.8828125 C-56.83953369 85.12363525 -56.49156738 84.36445801 -56.13305664 83.58227539 C-55.75914795 82.77137451 -55.38523926 81.96047363 -55 81.125 C-51.5200026 73.50164177 -48.24090643 65.81600868 -45.0625 58.0625 C-18.92082497 -5.29783099 -18.92082497 -5.29783099 0 0 Z " fill="#FBFBF6" transform="translate(463,480)"/>
<path d="M0 0 C0.95841797 -0.02698975 1.91683594 -0.05397949 2.90429688 -0.08178711 C11.06831019 -0.03741747 17.43186691 2.331772 23.6875 7.625 C24.4609375 8.5840625 24.4609375 8.5840625 25.25 9.5625 C26.054375 10.5215625 26.054375 10.5215625 26.875 11.5 C30.73045011 17.28317516 30.9451228 22.80334543 30.25 29.5625 C25.86328504 49.45938572 3.32923852 66.96020327 -12.75 77.5625 C-24.8130972 85.09437363 -41.13692783 93.90713471 -55.75 91.5625 C-59.05765282 88.98091731 -59.62065426 87.20922868 -60.4375 83.125 C-59.86025656 72.59528339 -51.5196809 62.05329908 -44.75 54.5625 C-44.26015625 53.97855469 -43.7703125 53.39460938 -43.265625 52.79296875 C-41.75 51.5625 -41.75 51.5625 -37.75 51.5625 C-38.26594692 56.34179779 -40.54216304 59.68764023 -43.1875 63.5625 C-47.52187251 69.97161954 -50.34978486 74.61535057 -49.75 82.5625 C-48.00179237 84.72139025 -48.00179237 84.72139025 -45.9296875 84.78515625 C-27.90527066 83.53261203 -9.92706595 71.05494541 1.59375 57.8828125 C10.07205544 47.16878952 18.84790077 33.10351823 18.56640625 19.16015625 C18.1272777 15.55496504 17.01839177 13.88196337 14.25 11.5625 C6.38206334 7.75146818 -2.63515419 8.55587337 -10.7355957 11.30566406 C-33.63869229 19.91063309 -53.1756325 35.92159071 -70.75 52.5625 C-72.14605469 53.87734375 -72.14605469 53.87734375 -73.5703125 55.21875 C-80.18423648 61.62540001 -85.91459784 68.44225899 -91.42675781 75.80371094 C-92.68043749 77.4700409 -93.95889208 79.1142581 -95.2421875 80.7578125 C-106.25673272 95.17326312 -115.03614413 112.02312763 -119.75 129.5625 C-119.92595703 130.1807666 -120.10191406 130.7990332 -120.28320312 131.43603516 C-121.20647828 135.64195913 -121.01997722 139.960869 -121.0625 144.25 C-121.09150391 145.20583984 -121.12050781 146.16167969 -121.15039062 147.14648438 C-121.22102154 155.11691188 -119.54022009 161.16898908 -114.4375 167.375 C-105.76099985 174.43726756 -97.68976272 175.18478457 -86.75 174.5625 C-50.64730485 170.39875738 -11.56490588 133.78646547 10.25 106.4375 C10.930625 105.54804687 11.61125 104.65859375 12.3125 103.7421875 C14.21113889 101.60621874 15.62125353 100.6069573 18.25 99.5625 C16.49442732 115.83080682 -8.79059465 135.63579886 -20.75 145.5625 C-21.2665918 145.99288574 -21.78318359 146.42327148 -22.31542969 146.86669922 C-46.39877684 166.83248365 -74.0340554 186.43424161 -106.75 183.5625 C-114.72232069 181.89564681 -122.24365452 178.11538227 -127.28125 171.57421875 C-128.55812713 169.60322528 -129.70474145 167.66517128 -130.75 165.5625 C-131.29914063 164.52222656 -131.29914063 164.52222656 -131.859375 163.4609375 C-135.80561923 150.61833565 -132.87955606 135.02884009 -128.75 122.5625 C-128.34910156 121.33144531 -127.94820312 120.10039063 -127.53515625 118.83203125 C-119.4560134 95.29910878 -107.32644295 72.20719638 -90.75 53.5625 C-90.05777344 52.76199219 -89.36554688 51.96148437 -88.65234375 51.13671875 C-66.05125193 25.41823495 -35.81273696 0.61421015 0 0 Z " fill="#FBFCF7" transform="translate(256.75,448.4375)"/>
<path d="M0 0 C8.03501094 -0.63019694 8.03501094 -0.63019694 12.0625 2 C12.701875 2.66 13.34125 3.32 14 4 C13.37680392 8.40083507 11.68847022 12.0131225 9.68359375 15.92578125 C9.18147118 16.92365913 9.18147118 16.92365913 8.66920471 17.94169617 C7.59760022 20.06819648 6.51777833 22.19039515 5.4375 24.3125 C4.73837217 25.69568057 4.03979975 27.07914202 3.34179688 28.46289062 C1.93930753 31.24169089 0.53399106 34.01903427 -0.87329102 36.79541016 C-4.27680426 43.51629407 -7.63967003 50.25745018 -11 57 C-11.43755615 57.87438721 -11.8751123 58.74877441 -12.32592773 59.6496582 C-24.89071058 84.89276943 -38.86945272 116.31236276 -40 145 C-40.07734375 146.81177734 -40.07734375 146.81177734 -40.15625 148.66015625 C-40.4551252 157.72799186 -40.4551252 157.72799186 -37 166 C-34.15869804 168.28296054 -34.15869804 168.28296054 -30.8125 168.0625 C-25.0586831 166.45897726 -21.38311588 162.65994248 -17.453125 158.2734375 C-16 157 -16 157 -13 157 C-13.81061457 163.30724761 -17.42494879 166.83195499 -22 171 C-27.528206 174.89221658 -32.94010157 176.88170241 -39.7421875 176.4765625 C-43.60408369 175.66142178 -45.43652401 173.92968685 -48 171 C-56.21293344 157.66388622 -52.80125571 144.05010978 -49.4296875 129.64453125 C-48.01541526 123.89245385 -46.3176699 118.3175476 -44.30859375 112.7421875 C-43.17447222 109.49893847 -42.16560927 106.2549927 -41.1796875 102.96484375 C-38.97766321 95.75484887 -36.38176332 88.7261399 -33.6875 81.6875 C-33.44832855 81.05913239 -33.2091571 80.43076477 -32.96273804 79.78335571 C-29.25927175 70.05911094 -25.3600283 60.44920808 -21 51 C-21.33620361 51.49701416 -21.67240723 51.99402832 -22.01879883 52.50610352 C-28.17158907 61.58750076 -34.36447513 70.6194198 -40.90136719 79.42944336 C-44.36700655 84.10780554 -47.72465854 88.85483218 -51.0625 93.625 C-56.17868872 100.9141318 -61.47329217 108.01600106 -67 115 C-67.72574219 115.92039062 -68.45148437 116.84078125 -69.19921875 117.7890625 C-75.12874646 125.17701983 -81.48265538 132.13228513 -88 139 C-88.78117188 139.82371094 -89.56234375 140.64742187 -90.3671875 141.49609375 C-98.70315467 150.06798452 -98.70315467 150.06798452 -105.5 150.4375 C-108.52391506 150.30210082 -110.03840282 149.98122529 -112.8125 148.625 C-120.28611393 139.65666329 -120.67272681 128.1140075 -120 117 C-118.22660096 98.35714263 -113.64772458 80.33563482 -109 62.25 C-108.8325528 61.59831848 -108.66510559 60.94663696 -108.49258423 60.27520752 C-106.41497746 52.21398658 -104.22448188 44.20211403 -101.83203125 36.22827148 C-100.67518901 31.73973719 -100.14182665 27.25026764 -99.6875 22.64453125 C-99 20 -99 20 -97.18359375 18.16015625 C-93.87205521 16.40071627 -90.62311856 16.44038961 -87 17 C-84 18.5 -84 18.5 -82 20 C-82.41376893 27.27100179 -83.48179401 33.75015784 -85.875 40.625 C-86.32431885 41.95084106 -86.32431885 41.95084106 -86.78271484 43.3034668 C-89.73778292 51.75102726 -93.38902161 59.86391188 -97.0715332 68.01391602 C-104.56709265 84.74080743 -113.69360678 108.2730806 -108.17578125 126.76171875 C-107.0711561 129.29824846 -107.0711561 129.29824846 -104 131 C-99.03027441 132.03785434 -94.96986554 131.39420463 -90.6875 128.6875 C-75.29506902 117.23017747 -63.87728556 102.48540491 -52.59765625 87.15966797 C-50.96407111 84.95143231 -49.31203821 82.75803124 -47.65625 80.56640625 C-31.46259341 59.02996803 -15.29678468 36.02330575 -5.1796875 10.91015625 C-3.65702105 7.15390955 -1.86893655 3.59410875 0 0 Z " fill="#FBFCF8" transform="translate(813,665)"/>
<path d="M0 0 C6.1772848 4.61577719 10.98263899 10.11168778 12.45703125 17.8359375 C14.10527453 31.76266724 8.88532768 43.91675049 0.45703125 54.8359375 C-2.94805197 58.75562725 -6.53230532 62.53416522 -10.54296875 65.8359375 C-11.53296875 65.8359375 -12.52296875 65.8359375 -13.54296875 65.8359375 C-12.95265828 62.11698157 -11.36759483 60.20273917 -8.91796875 57.3984375 C-0.62861588 47.31679211 3.90792662 37.66067623 3.73046875 24.58203125 C3.04428151 17.69075087 -0.47352677 13.37389626 -5.6640625 9.0625 C-12.38727041 4.67354515 -19.83722607 5.11304348 -27.54296875 5.8359375 C-45.27902838 10.2592163 -58.11761141 25.02534889 -67.28515625 40.01171875 C-81.42291033 63.72408561 -95.51202473 93.02569567 -89.41796875 121.2734375 C-87.17198257 129.08191283 -82.91922607 134.2795924 -76.3515625 138.92578125 C-67.88766077 143.18515296 -54.90737596 141.57932665 -46.2109375 138.8046875 C-45.33050781 138.485 -44.45007813 138.1653125 -43.54296875 137.8359375 C-42.59035156 137.495625 -41.63773438 137.1553125 -40.65625 136.8046875 C-22.0504093 129.60556482 -6.80342423 116.44634372 7.45703125 102.8359375 C8.25882813 102.07539062 9.060625 101.31484375 9.88671875 100.53125 C15.56874868 95.0065081 20.53939092 89.04211377 25.45703125 82.8359375 C26.26527344 81.84464844 27.07351563 80.85335937 27.90625 79.83203125 C36.71361715 68.94909581 44.54494747 57.37612266 52.45703125 45.8359375 C53.47259081 44.3567259 54.48820928 42.87755475 55.50390625 41.3984375 C56.83776014 39.45592725 58.17125763 37.51318883 59.50244141 35.56884766 C63.37498087 29.92340893 67.3280511 24.33572494 71.31152344 18.76806641 C74.54070096 14.22877178 77.55595081 9.59149606 80.45703125 4.8359375 C81.44703125 5.1659375 82.43703125 5.4959375 83.45703125 5.8359375 C82.94966694 10.60842084 80.67977659 13.83667799 77.984375 17.65625 C74.38080566 22.90926204 70.94067157 28.2118087 67.7109375 33.703125 C67.13536102 34.68152344 67.13536102 34.68152344 66.54815674 35.6796875 C65.76777919 37.01032238 64.98860946 38.34166631 64.21063232 39.67370605 C51.74793283 60.98961605 38.73638085 81.18878777 22.45703125 99.8359375 C22.01681641 100.3407666 21.57660156 100.8455957 21.12304688 101.36572266 C15.90100161 107.31955677 10.55032063 112.7856436 4.45703125 117.8359375 C3.58691406 118.59390625 2.71679688 119.351875 1.8203125 120.1328125 C-10.14597425 130.42158242 -22.84570509 138.96454982 -37.54296875 144.8359375 C-38.1781543 145.0927832 -38.81333984 145.34962891 -39.46777344 145.61425781 C-51.64785034 150.38463484 -64.98290569 152.3691117 -77.66796875 148.2109375 C-87.74974104 143.77989823 -93.77617881 137.0995868 -98.35546875 127.1484375 C-106.3259124 104.91509469 -98.07839389 78.59651352 -88.69921875 58.18261719 C-80.95524744 41.81810004 -72.51279757 27.55179938 -59.54296875 14.8359375 C-58.67414062 13.98 -57.8053125 13.1240625 -56.91015625 12.2421875 C-51.57305888 7.22297368 -46.08035791 3.1550749 -39.54296875 -0.1640625 C-38.74890625 -0.57785156 -37.95484375 -0.99164062 -37.13671875 -1.41796875 C-25.68705868 -6.48903733 -10.8078474 -6.43936083 0 0 Z " fill="#FBFBF6" transform="translate(623.54296875,706.1640625)"/>
<path d="M0 0 C4.28635138 2.26924485 7.60201503 4.7574112 10 9 C10.79554917 13.84635563 10.59906235 17.7269925 8.5 22.1875 C6.44498803 24.49938846 4.49176447 26.2958324 2.125 28.25 C-6.27905768 35.38640652 -10.1416054 45.11548668 -11.31640625 55.90625 C-11.78518823 67.39896945 -8.1663259 78.9546984 -1 88 C1.82077637 90.79319895 4.68723867 93.39316443 7.70703125 95.96875 C10.17005176 98.15064211 10.90550163 98.97323882 11.203125 102.20703125 C11.316481 108.50773558 10.66860147 111.88663161 6.5 116.75 C3.12330194 119.56391505 -1.10795718 119.5154575 -5.30859375 119.47265625 C-10.29366572 118.59719368 -13.41883484 115.38631753 -17 112 C-17.89138672 111.24203125 -17.89138672 111.24203125 -18.80078125 110.46875 C-31.27915786 99.22386809 -39.25264568 81.3251686 -40.18359375 64.7265625 C-40.57944763 43.6298793 -34.37234407 24.6426685 -19.73681641 9.25634766 C-13.88499102 3.32427783 -8.72897738 -1.09112217 0 0 Z " fill="#FDF7EB" transform="translate(1446,555)"/>
<path d="M0 0 C0 3.29256954 -0.54351156 4.34193139 -2.1328125 7.1484375 C-2.60219238 7.97859375 -3.07157227 8.80875 -3.55517578 9.6640625 C-4.07321777 10.55867187 -4.59125977 11.45328125 -5.125 12.375 C-5.6597998 13.303125 -6.19459961 14.23125 -6.74560547 15.1875 C-15.47735485 30.14613329 -25.13092353 44.5111974 -36 58 C-36.72316406 58.91523437 -37.44632813 59.83046875 -38.19140625 60.7734375 C-65.3168258 94.64381827 -65.3168258 94.64381827 -84 100 C-87.25 100.25 -87.25 100.25 -90 100 C-92 98 -92 98 -92.5625 94.25 C-92.05501233 73.20617788 -67.32405499 51.8739635 -53.375 37.9375 C-52.80729889 37.36972839 -52.23959778 36.80195679 -51.6546936 36.21697998 C-42.76417804 27.36864086 -33.83926973 19.41406328 -23 13 C-21.65373535 12.20021729 -21.65373535 12.20021729 -20.28027344 11.38427734 C-6.328125 3.1640625 -6.328125 3.1640625 0 0 Z " fill="#8DA002" transform="translate(256,787)"/>
<path d="M0 0 C2.14878953 1.43139303 4.0831412 2.8846297 5.96875 4.64453125 C5.164375 5.61390625 4.36 6.58328125 3.53125 7.58203125 C-4.95913191 18.93615243 -13.64119646 34.23935813 -13.3671875 48.70703125 C-12.97631961 50.96133911 -12.14129296 52.65533426 -11.03125 54.64453125 C-4.17706539 54.51760191 -0.60114062 52.33092942 4.76953125 48.140625 C6.96875 46.64453125 6.96875 46.64453125 9.96875 46.64453125 C9.07688288 52.09086649 5.25419444 54.55022742 0.96875 57.64453125 C-11.28267392 65.0504846 -11.28267392 65.0504846 -18.03125 63.64453125 C-20.93842073 61.42590096 -21.87106643 60.12508196 -23.03125 56.64453125 C-23.46364464 51.25468183 -23.03560535 46.10203743 -22.01953125 40.80078125 C-21.83559814 39.82947266 -21.65166504 38.85816406 -21.4621582 37.85742188 C-21.3199585 37.12716797 -21.17775879 36.39691406 -21.03125 35.64453125 C-21.73302368 36.3087207 -21.73302368 36.3087207 -22.44897461 36.98632812 C-48.58471898 61.70420274 -48.58471898 61.70420274 -53.59375 61.58203125 C-56.03125 60.64453125 -56.03125 60.64453125 -57.84375 58.64453125 C-60.19965573 52.6927694 -59.89600786 48.80185046 -57.5546875 42.9609375 C-50.23885828 27.26665534 -37.97320551 6.99903655 -21.5703125 -0.7109375 C-14.61580333 -2.4763129 -6.63977717 -2.96907561 0 0 Z " fill="#FBFBF6" transform="translate(913.03125,768.35546875)"/>
<path d="M0 0 C1.30453125 -0.02578125 2.6090625 -0.0515625 3.953125 -0.078125 C8.74149457 0.33568472 12.05375919 1.72338327 15.625 4.9375 C17.32458046 8.43108205 16.94294508 11.39109842 16.75 15.25 C17.575 15.085 18.4 14.92 19.25 14.75 C23.16272317 14.19103955 26.80183173 14.18192813 30.75 14.25 C30.125 16.125 30.125 16.125 28.75 18.25 C24.03493603 20.49526856 19.85467806 20.42602338 14.75 20.25 C14.49089844 21.13171875 14.23179687 22.0134375 13.96484375 22.921875 C9.14902558 36.11504889 -3.8265159 47.2938043 -16.25 53.25 C-22.29207109 55.70226033 -28.71501667 57.44872475 -35.25 56.25 C-38.12029869 54.45606332 -39.74131638 53.26736724 -41.25 50.25 C-43.26038734 40.59185053 -38.23316999 32.15333097 -33.25 24.25 C-25.68108243 13.16884429 -14.0185203 0.16492377 0 0 Z " fill="#FAFBF5" transform="translate(327.25,773.75)"/>
<path d="M0 0 C1.20269531 -0.02578125 2.40539062 -0.0515625 3.64453125 -0.078125 C8.27662376 0.35086703 11.35789458 1.88067267 15.05078125 4.64453125 C17.26986427 7.77870006 16.3478463 11.5620351 16.1875 15.25 C20.8075 14.92 25.4275 14.59 30.1875 14.25 C30.1875 15.24 30.1875 16.23 30.1875 17.25 C28.81458132 17.73509793 27.43903297 18.21275513 26.0625 18.6875 C25.29679687 18.95433594 24.53109375 19.22117187 23.7421875 19.49609375 C21.1875 20.25 21.1875 20.25 18.0390625 20.5546875 C15.07032956 20.94597091 15.07032956 20.94597091 13.78125 23.26171875 C13.4203125 24.14472656 13.059375 25.02773438 12.6875 25.9375 C6.23027373 38.85195253 -5.79324551 48.43587915 -18.8125 54.25 C-24.57676311 56.13796866 -29.77849733 57.17752406 -35.8125 56.25 C-38.9375 54.5 -38.9375 54.5 -40.8125 51.25 C-42.92847619 41.39077763 -38.87438692 33.43354394 -33.8125 25.25 C-25.77525994 13.68148748 -14.9451876 0.19099281 0 0 Z " fill="#FAFBF4" transform="translate(302.8125,562.75)"/>
<path d="M0 0 C2 3 2 3 1.8515625 5.78125 C-1.35415452 17.89827213 -11.67140347 29.49294686 -18.6875 39.703125 C-48.5354971 77.79846009 -48.5354971 77.79846009 -63.0625 121.6875 C-63.05347656 122.68136719 -63.04445313 123.67523437 -63.03515625 124.69921875 C-63.02355469 125.45847656 -63.01195312 126.21773437 -63 127 C-56.00349312 126.86545179 -51.60148351 124.30249217 -45.734375 120.59375 C-43.38321518 119.2233597 -41.65074976 118.45441425 -39 118 C-40.38405632 123.60962221 -44.40523979 126.17934891 -48.75 129.5625 C-49.45382812 130.12646484 -50.15765625 130.69042969 -50.8828125 131.27148438 C-63.12595029 141 -63.12595029 141 -71 141 C-73.5 139.6875 -73.5 139.6875 -75 137 C-77.75499981 122.536251 -68.99473044 106.64762193 -63 94 C-62.56123535 93.06365723 -62.1224707 92.12731445 -61.67041016 91.16259766 C-50.2442081 66.80077195 -37.91367823 43.03888278 -24 20 C-23.38318359 18.96456055 -23.38318359 18.96456055 -22.75390625 17.90820312 C-17.93829403 9.87932653 -10.60681914 -1.06068191 0 0 Z " fill="#FBFCF8" transform="translate(1002,702)"/>
<path d="M0 0 C3.40529078 1.2813723 6.30685004 2.61370008 8 6 C8.3890285 14.94765556 5.0464303 20.53224941 -0.80078125 26.98828125 C-9.26238056 35.18699592 -20.47395784 40.8778787 -31 46 C-31.3324874 49.57423953 -31.18208328 51.63583344 -29.5625 54.875 C-26.34351302 57.54440384 -24.56647733 57.67287372 -20.48046875 57.40625 C-9.57175112 55.61962538 -1.5312985 48.62128516 6.73046875 41.71875 C9 40 9 40 11 40 C10.88868801 43.67329568 9.67246232 45.70461464 7.25 48.3125 C-1.68641479 56.71676688 -13.80070668 64.00999091 -26.25 64.5 C-31.26615382 64.30064004 -34.29752669 63.60991148 -38 60 C-42.50154989 53.72113916 -43.82325759 47.58324594 -43 40 C-38.94034523 24.08615332 -28.27639366 11.14569504 -15.125 1.66796875 C-10.03795716 -1.04724036 -5.58020025 -1.18197325 0 0 Z " fill="#FAFBF5" transform="translate(845,764)"/>
<path d="M0 0 C0.99 0.33 1.98 0.66 3 1 C2.38714226 5.06265373 0.13825588 8.00063315 -2.125 11.3125 C-8.61212263 21.07056127 -15.22495939 32.07715215 -15 44 C-6.04147401 44.6084548 -0.29258996 38.23059065 6.1875 32.6875 C13.72751411 25.71298695 18.58035296 17.23637428 23.6171875 8.37109375 C25 6 25 6 26 5 C32.15644102 4.53536294 32.15644102 4.53536294 35.22729492 6.22680664 C37 8 37 8 37.34106445 10.16186523 C36.566904 16.72041718 34.62489797 21.46136081 31.1875 27.0625 C24.12105945 38.03778355 24.12105945 38.03778355 21.6875 50.5 C21.71199219 51.3353125 21.73648438 52.170625 21.76171875 53.03125 C21.79460816 55.00028201 21.79460816 55.00028201 23 56 C28.33239585 55.64450694 31.48703644 54.96566176 36 52 C36.99 52 37.98 52 39 52 C37.56323497 55.54965477 35.88698102 57.07087942 32.6875 59.125 C31.92824219 59.62257813 31.16898437 60.12015625 30.38671875 60.6328125 C25.91336827 63.19528822 22.20660002 64.66467234 17 64 C13.90062732 61.73464033 13.08435095 60.49563453 12.43359375 56.671875 C12.44276992 47.45899746 13.80711398 39.81348257 16.90625 31.1328125 C18.10987207 28.23833717 18.10987207 28.23833717 18 26 C17.51273437 26.63164063 17.02546875 27.26328125 16.5234375 27.9140625 C-7.84286983 58.65991212 -7.84286983 58.65991212 -21.12207031 60.25488281 C-24.00555703 60.30036368 -26.38849119 60.30575441 -29 59 C-31.52301605 51.43095184 -30.31351771 44.3439636 -26.95214844 37.27587891 C-26.51418945 36.42171387 -26.07623047 35.56754883 -25.625 34.6875 C-25.17672852 33.78177246 -24.72845703 32.87604492 -24.26660156 31.94287109 C-20.24541405 24.03659348 -15.52044929 16.92443899 -10 10 C-9.39929688 9.24074219 -8.79859375 8.48148438 -8.1796875 7.69921875 C-5.7578939 4.76020792 -3.36266985 1.85526612 0 0 Z " fill="#FBFBF6" transform="translate(379,769)"/>
<path d="M0 0 C1.32 0 2.64 0 4 0 C3.39795395 6.18157144 1.55317819 11.61833761 -0.5625 17.4375 C-0.89185547 18.35982422 -1.22121094 19.28214844 -1.56054688 20.23242188 C-2.36782647 22.4904648 -3.18108727 24.74615565 -4 27 C-3.56357178 26.65332275 -3.12714355 26.30664551 -2.67749023 25.94946289 C25.36788178 3.78794032 25.36788178 3.78794032 35.6875 3.9375 C36.89986328 3.95103516 36.89986328 3.95103516 38.13671875 3.96484375 C39.05904297 3.98224609 39.05904297 3.98224609 40 4 C40.30482487 7.88651712 40.41001245 10.29216756 38.4296875 13.7109375 C35.1674238 16.78438851 33.2944587 16.50556148 28.875 16.4375 C20.07409572 16.60399783 14.1404958 19.66351581 8 25.875 C7.34 26.57625 6.68 27.2775 6 28 C5.34 28 4.68 28 4 28 C3.74089844 28.58523438 3.48179687 29.17046875 3.21484375 29.7734375 C1.91076952 32.16354139 0.47455686 33.69306729 -1.4375 35.625 C-7.2775574 42.02023654 -11.37966244 49.54401978 -15.76757812 56.96240234 C-17.42592299 59.70419043 -19.19366052 62.35379706 -21 65 C-23.4375 64.625 -23.4375 64.625 -26 64 C-27.85422032 60.29155935 -27.53296374 56.60491088 -26.25831604 52.76657104 C-23.81250303 46.80745282 -21.17071636 40.98091342 -18.33984375 35.1953125 C-17.90869766 34.30891083 -17.47755157 33.42250916 -17.03334045 32.50924683 C-16.13002756 30.65471925 -15.22493312 28.80105844 -14.31811523 26.94824219 C-12.9321791 24.1141192 -11.55465695 21.27601109 -10.17773438 18.4375 C-9.2947724 16.62735942 -8.411326 14.81745504 -7.52734375 13.0078125 C-7.11790024 12.16300323 -6.70845673 11.31819397 -6.28660583 10.44778442 C-5.89932816 9.65951263 -5.51205048 8.87124084 -5.11303711 8.05908203 C-4.77646591 7.36976593 -4.43989471 6.68044983 -4.09312439 5.97024536 C-2.8662633 3.75895323 -1.72363487 1.86039362 0 0 Z " fill="#FBFBF6" transform="translate(447,766)"/>
<path d="M0 0 C0.84741897 2.89362577 1.15372554 4.54752482 0.171875 7.4375 C-5.77638827 18.15744699 -13.81226202 26.9381837 -22.375 35.625 C-22.86242676 36.12185303 -23.34985352 36.61870605 -23.85205078 37.13061523 C-27.38916985 40.63553449 -30.65810911 43.78710083 -35.75 44.25 C-38 44 -38 44 -39 43 C-39 31.53569007 -33.21998752 21.57457576 -25.3125 13.625 C-10.39600762 -0.67154335 -10.39600762 -0.67154335 0 0 Z " fill="#8EA105" transform="translate(904,771)"/>
<path d="M0 0 C1.32 0.66 2.64 1.32 4 2 C3.45685074 7.31461241 2.12832065 11.80005448 -0.0625 16.6875 C-0.37413086 17.38593018 -0.68576172 18.08436035 -1.00683594 18.80395508 C-7.73072793 33.42089342 -18.43031752 45.94452563 -30 57 C-31.13302389 53.60092834 -30.90009144 53.0059515 -29.69921875 49.78125 C-29.38662109 48.94053955 -29.07402344 48.0998291 -28.75195312 47.23364258 C-28.40068359 46.33154053 -28.04941406 45.42943848 -27.6875 44.5 C-27.32720703 43.56889404 -26.96691406 42.63778809 -26.59570312 41.6784668 C-20.50011111 26.33694166 -13.37326727 10.28889926 0 0 Z " fill="#8FA208" transform="translate(454,487)"/>
<path d="M0 0 C-4.99614761 10.85701308 -16.07530332 19.25551636 -26.66796875 24.2265625 C-30.26637436 25.42000356 -32.39840266 25.12549917 -36 24 C-38 22 -38 22 -38.5 18.5625 C-38.40477517 12.80668794 -35.07081997 6.07081997 -31 2 C-29.39036105 1.77203182 -27.77198846 1.60505094 -26.15234375 1.46484375 C-25.15396484 1.37783203 -24.15558594 1.29082031 -23.12695312 1.20117188 C-21.54817383 1.0706543 -21.54817383 1.0706543 -19.9375 0.9375 C-18.91205078 0.84662109 -17.88660156 0.75574219 -16.83007812 0.66210938 C-11.19684196 0.1827617 -5.6530286 -0.10179523 0 0 Z " fill="#8EA105" transform="translate(373,585)"/>
<path d="M0 0 C1.81998354 -0.00480841 3.63999218 0.00099469 5.45996094 0.00976562 C0.22649429 11.29910082 -12.06760529 20.73190896 -23.54003906 25.00976562 C-29.74003906 24.80976562 -29.74003906 24.80976562 -32.54003906 22.00976562 C-33.45556258 15.82998186 -32.30716844 10.08866983 -29.43847656 4.53320312 C-22.09923206 -1.85648953 -9.24762416 0.03555411 0 0 Z " fill="#8EA105" transform="translate(305.5400390625,584.990234375)"/>
<path d="M0 0 C-1.43011388 4.62036791 -4.0540823 7.55649455 -7.4375 10.875 C-7.96593506 11.39876221 -8.49437012 11.92252441 -9.03881836 12.4621582 C-15.3046795 18.4986782 -22.9351108 25.04397979 -32 25.25 C-34.46941535 25.19542729 -35.81969091 25.08742259 -38.0625 24 C-39.69800993 20.51091216 -38.94461272 17.55823443 -38 14 C-37.80019531 13.04351563 -37.60039062 12.08703125 -37.39453125 11.1015625 C-36.0929096 7.30142573 -35.14189348 5.56944835 -32 3 C-25.38462256 1.20644507 -18.40063908 1.18730111 -11.58374023 1.12255859 C-7.61930966 0.93450755 -4.00179951 0 0 0 Z " fill="#8EA004" transform="translate(336,795)"/>
<path d="M0 0 C1 1 1 1 1.125 3.9375 C-0.42005056 13.26502747 -11.14405697 19.94494099 -18.203125 25.08984375 C-25.39263804 30 -25.39263804 30 -29 30 C-28.50296794 20.55639081 -21.78577059 13.18401781 -15.234375 6.984375 C-6.34883721 -0.90697674 -6.34883721 -0.90697674 0 0 Z " fill="#8FA107" transform="translate(845,772)"/>
<path d="M0 0 C1.625 1.1875 1.625 1.1875 3.625 4.1875 C3.75 6.875 3.75 6.875 3.625 9.1875 C-0.16686081 10.4514536 -3.7375172 10.37164402 -7.6875 10.375 C-8.43451172 10.38724609 -9.18152344 10.39949219 -9.95117188 10.41210938 C-14.49022437 10.42406474 -18.09999142 9.90701855 -22.375 8.1875 C-16.1101285 1.35309472 -9.59783106 -3.28346852 0 0 Z " fill="#94A612" transform="translate(373.375,569.8125)"/>
<path d="M0 0 C3.0625 2.1875 3.0625 2.1875 5 5 C5.3125 7.8125 5.3125 7.8125 5 10 C-2.46112468 12.48704156 -11.32057083 11.02392389 -19 10 C-19 9.01 -19 8.02 -19 7 C-13.6906981 1.82370775 -7.5350322 -2.1210819 0 0 Z " fill="#92A40E" transform="translate(334,780)"/>
<path d="M0 0 C2.81009519 1.00875212 3.66697708 1.33395417 5 4 C5.039992 5.99960012 5.04346799 8.00047242 5 10 C1.39590081 10.05800828 -2.20807851 10.09359869 -5.8125 10.125 C-7.34874023 10.15013672 -7.34874023 10.15013672 -8.91601562 10.17578125 C-9.89892578 10.18222656 -10.88183594 10.18867187 -11.89453125 10.1953125 C-12.80050049 10.20578613 -13.70646973 10.21625977 -14.63989258 10.22705078 C-17 10 -17 10 -20 8 C-18.37615858 6.85252535 -16.75088944 5.7070709 -15.125 4.5625 C-14.22007812 3.92441406 -13.31515625 3.28632812 -12.3828125 2.62890625 C-8.25991669 -0.18953236 -4.91819152 -0.39929872 0 0 Z " fill="#8EA106" transform="translate(309,569)"/>
</svg>
